HIERARCHY
ROOT Hips
{
	OFFSET 0.000000 0.000000 0.000000
	CHANNELS 6 Xposition Yposition Zposition Zrotation Yrotation Xrotation 
	JOINT LeftUpLeg_virtual
	{
		OFFSET 0.000000 0.000000 0.000000
		CHANNELS 3 Zrotation Yrotation Xrotation
		JOINT LeftUpLeg
		{
			OFFSET 8.479694 -4.795517 -0.379053
			CHANNELS 3 Zrotation Yrotation Xrotation
			JOINT LeftLeg
			{
				OFFSET 0.485052 -32.551468 0.112863
				CHANNELS 3 Zrotation Yrotation Xrotation
				JOINT LeftFoot
				{
					OFFSET 0.438033 -32.635670 -3.012641
					CHANNELS 3 Zrotation Yrotation Xrotation
					JOINT LeftToeBase
					{
						OFFSET 0.970169 -13.225353 11.864223
						CHANNELS 3 Zrotation Yrotation Xrotation
						End Site
						{
							OFFSET 0.000000 0.000000 0.000000
						}
					}
				}
			}
		}
	}
	JOINT RightUpLeg_virtual
	{
		OFFSET 0.000000 0.000000 0.000000
		CHANNELS 3 Zrotation Yrotation Xrotation
		JOINT RightUpLeg
		{
			OFFSET -8.479694 -4.795517 -0.379053
			CHANNELS 3 Zrotation Yrotation Xrotation
			JOINT RightLeg
			{
				OFFSET -0.484100 -32.551483 0.112903
				CHANNELS 3 Zrotation Yrotation Xrotation
				JOINT RightFoot
				{
					OFFSET -0.438985 -32.635651 -3.012681
					CHANNELS 3 Zrotation Yrotation Xrotation
					JOINT RightToeBase
					{
						OFFSET -0.970169 -13.225354 11.864223
						CHANNELS 3 Zrotation Yrotation Xrotation
						End Site
						{
							OFFSET 0.000000 0.000000 0.000000
						}
					}
				}
			}
		}
	}
	JOINT Spine_virtual
	{
		OFFSET 0.000000 0.000000 0.000000
		CHANNELS 3 Zrotation Yrotation Xrotation
		JOINT Spine
		{
			OFFSET 0.000000 7.722015 1.166203
			CHANNELS 3 Zrotation Yrotation Xrotation
			JOINT Spine1
			{
				OFFSET 0.000000 12.024086 0.248766
				CHANNELS 3 Zrotation Yrotation Xrotation
				JOINT Spine2
				{
					OFFSET -0.000000 11.503036 -0.491240
					CHANNELS 3 Zrotation Yrotation Xrotation
					JOINT Neck_virtual
					{
						OFFSET 0.000000 0.000000 0.000000
						CHANNELS 3 Zrotation Yrotation Xrotation
						JOINT Neck
						{
							OFFSET 0.000000 18.430687 -3.123054
							CHANNELS 3 Zrotation Yrotation Xrotation
							JOINT Head
							{
								OFFSET -0.000000 9.051071 1.034021
								CHANNELS 3 Zrotation Yrotation Xrotation
								End Site
								{
									OFFSET 0.000000 0.000000 0.000000
								}
							}
						}
					}
					JOINT LeftShoulder_virtual
					{
						OFFSET 0.000000 0.000000 0.000000
						CHANNELS 3 Zrotation Yrotation Xrotation
						JOINT LeftShoulder
						{
							OFFSET 6.197824 13.665230 -4.064723
							CHANNELS 3 Zrotation Yrotation Xrotation
							JOINT LeftArm
							{
								OFFSET 7.778132 -0.187073 -1.709282
								CHANNELS 3 Zrotation Yrotation Xrotation
								JOINT LeftForeArm
								{
									OFFSET 21.954697 0.000000 -2.041093
									CHANNELS 3 Zrotation Yrotation Xrotation
									JOINT LeftHand
									{
										OFFSET 22.992908 0.000000 -0.870901
										CHANNELS 3 Zrotation Yrotation Xrotation
										End Site
										{
											OFFSET 0.000000 0.000000 0.000000
										}
									}
								}
							}
						}
					}
					JOINT RightShoulder_virtual
					{
						OFFSET 0.000000 0.000000 0.000000
						CHANNELS 3 Zrotation Yrotation Xrotation
						JOINT RightShoulder
						{
							OFFSET -6.197824 13.665230 -4.064723
							CHANNELS 3 Zrotation Yrotation Xrotation
							JOINT RightArm
							{
								OFFSET -7.778132 -0.187073 -1.709282
								CHANNELS 3 Zrotation Yrotation Xrotation
								JOINT RightForeArm
								{
									OFFSET -21.954697 0.000000 -2.041093
									CHANNELS 3 Zrotation Yrotation Xrotation
									JOINT RightHand
									{
										OFFSET -22.992908 0.000000 -0.870901
										CHANNELS 3 Zrotation Yrotation Xrotation
										End Site
										{
											OFFSET 0.000000 0.000000 0.000000
										}
									}
								}
							}
						}
					}
				}
			}
		}
	}
}
MOTION
Frames: 5
Frame Time: 0.033333
-48.739639 79.758850 15.207447 -179.825316 10.403168 -179.931812 -4.375812 -0.765681 9.375173 3.874838 17.355263 -33.370648 6.780619 2.837752 37.179377 -4.347933 -9.201511 -9.758334 0.000000 0.000000 0.000000 0.178523 -0.630632 10.487071 -0.516933 0.847244 -23.896779 -0.947222 6.617711 31.692382 7.417397 2.034284 -9.533043 0.000000 0.000000 0.000000 1.632081 1.447826 -6.162669 0.931886 1.809544 0.671093 -1.082321 -2.872980 12.721929 -0.004553 -0.177010 0.024932 -1.347047 -1.619110 14.940480 -1.033922 -5.214002 10.261889 0.000000 0.000000 0.000000 0.154004 -1.407186 11.065201 -4.330626 -11.089202 7.923265 -48.332652 -21.889629 47.911038 -131.723886 -87.719641 160.853591 0.000000 0.000000 0.000000 -4.188234 0.816397 10.522938 21.489437 15.715369 8.078535 34.721451 15.275628 39.778086 179.723464 67.816477 -179.941293 0.000000 0.000000 0.000000 
-48.377125 79.638664 15.483445 -179.857035 10.704613 -179.931840 -4.394568 -0.505541 9.323954 4.299676 17.208802 -33.349051 6.701408 2.887920 37.083590 -4.607220 -9.111153 -9.871193 0.000000 0.000000 0.000000 0.108451 -0.400915 10.493715 -0.121028 0.751507 -24.275430 -0.786754 6.565206 32.144147 7.215281 2.059487 -9.813787 0.000000 0.000000 0.000000 1.463635 1.575810 -5.922327 0.877257 1.889995 0.617255 -1.032290 -2.859619 12.684682 -0.000263 -0.054904 0.016933 -1.281191 -1.708012 14.956400 -0.794714 -5.265038 10.263868 0.000000 0.000000 0.000000 0.178246 -1.434444 11.129644 -4.237908 -11.184804 7.984979 -47.923500 -21.804740 47.549503 -131.304431 -87.737386 160.356326 0.000000 0.000000 0.000000 -4.141200 0.774008 10.493035 21.662015 15.479731 7.978591 35.264396 15.254988 40.095116 179.743286 67.723511 179.985197 0.000000 0.000000 0.000000 
-48.035915 79.516403 15.702188 -179.872349 10.878085 -179.982670 -4.450148 -0.469892 9.270099 4.718342 17.269162 -33.335742 6.621637 2.927762 37.152032 -4.997266 -9.075708 -9.982755 0.000000 0.000000 0.000000 -0.029005 -0.389434 10.504398 0.264627 0.586666 -24.507226 -0.619582 6.519567 32.470299 7.063948 2.148195 -10.116798 0.000000 0.000000 0.000000 1.288550 1.552050 -5.696657 0.806490 1.947504 0.592992 -0.984477 -2.922106 12.651398 0.012410 -0.084800 0.002255 -1.227170 -1.767206 14.898845 -0.553514 -5.288327 10.331306 0.000000 0.000000 0.000000 0.227222 -1.497892 11.019551 -4.177730 -11.111983 8.025270 -47.533267 -21.581840 47.135795 -129.972667 -87.690640 158.958146 0.000000 0.000000 0.000000 -4.058886 0.643585 10.482864 21.971455 15.560571 7.855917 35.725386 15.311652 40.315451 179.972630 67.650223 -179.862718 0.000000 0.000000 0.000000 
-47.728695 79.423164 15.899767 -179.862732 10.960098 -179.963586 -4.504926 -0.638607 9.223962 5.103026 17.431275 -33.406397 6.551468 2.961187 37.274046 -5.368835 -9.017765 -9.992189 0.000000 0.000000 0.000000 -0.188641 -0.552731 10.469573 0.588013 0.405137 -24.687481 -0.447031 6.513254 32.623774 6.989615 2.302383 -10.297733 0.000000 0.000000 0.000000 1.195078 1.255157 -5.550279 0.731284 1.872851 0.563216 -0.986065 -2.940005 12.587214 -0.017974 -0.025036 -0.058273 -1.164760 -1.671306 14.873980 -0.370666 -5.235698 10.379673 0.000000 0.000000 0.000000 0.315559 -1.440788 10.969612 -4.155186 -10.972524 8.181626 -47.351434 -21.363416 46.860804 -129.354016 -87.687847 158.285249 0.000000 0.000000 0.000000 -3.945553 0.770159 10.521528 22.273969 15.611640 7.865356 36.079965 15.494687 40.271369 179.935077 67.669061 -179.965676 0.000000 0.000000 0.000000 
-47.466915 79.380692 16.089338 -179.869043 11.020749 179.954338 -4.548387 -0.804190 9.287562 5.411290 17.782353 -33.465106 6.481670 2.945044 37.334354 -5.663107 -8.958093 -9.847430 0.000000 0.000000 0.000000 -0.263602 -0.747999 10.487935 0.832223 0.255491 -24.764697 -0.279603 6.547092 32.585828 6.981934 2.477209 -10.315246 0.000000 0.000000 0.000000 1.186968 1.253385 -5.338878 0.700396 2.072906 0.576570 -0.950555 -2.983178 12.491940 0.040145 -0.129607 -0.004568 -1.229357 -1.702719 14.727223 -0.171007 -5.206562 10.394879 0.000000 0.000000 0.000000 0.222911 -1.425078 10.908277 -4.089867 -11.019465 8.241754 -47.204838 -21.329670 46.640719 -127.911767 -87.649646 156.816526 0.000000 0.000000 0.000000 -3.973399 0.690935 10.306907 22.581966 15.412078 7.878707 36.367325 15.628190 40.298335 179.905202 67.604488 179.943711 0.000000 0.000000 0.000000 
